<?xml version="1.0" encoding="UTF-8"?>
<!DOCTYPE svg PUBLIC "-//W3C//DTD SVG 1.1//EN" "http://www.w3.org/Graphics/SVG/1.1/DTD/svg11.dtd">
<!-- Creator: CorelDRAW -->
<svg xmlns="http://www.w3.org/2000/svg" xml:space="preserve" width="8.4666mm" height="8.4666mm" version="1.1" style="shape-rendering:geometricPrecision; text-rendering:geometricPrecision; image-rendering:optimizeQuality; fill-rule:evenodd; clip-rule:evenodd"
viewBox="0 0 40.54 40.54"
 xmlns:xlink="http://www.w3.org/1999/xlink"
 xmlns:xodm="http://www.corel.com/coreldraw/odm/2003">
 <defs>
  <style type="text/css">
   <![CDATA[
    .fil1 {fill:none}
    .fil0 {fill:#007CC4;fill-rule:nonzero}
   ]]>
  </style>
 </defs>
 <g id="Livello_x0020_1">
  <metadata id="CorelCorpID_0Corel-Layer"/>
  <g id="_1789575421904">
   <path class="fil0" d="M22.14 40.36c1.15,0.15 12.54,-2.96 16.36,-3.3 -6.54,-17.45 -6.48,-36.36 -22.44,-36.88 -11.8,-0.38 -20.67,11.81 -7.42,15.46l16.96 4.69c2.35,0.65 4.41,3.32 3.48,5.54 -0.73,1.77 -4.69,13.09 -7.18,14.33 -0.07,0.05 0.11,0.13 0.24,0.16zm4.78 -24.68l0 0 -0.67 3.72 -4.48 -1.23 0.68 -3.74c0.21,-1.21 -0.07,-2.45 -0.72,-3.49l0.01 -0.01c-0.66,-1.01 -1.64,-1.81 -2.84,-2.14 -1.21,-0.33 -2.39,-0.13 -3.33,0.45 -0.94,0.59 -1.63,1.57 -1.86,2.8l-0.69 3.71 -4.48 -1.24 0.69 -3.73c0.45,-2.47 1.85,-4.45 3.76,-5.64 1.89,-1.17 4.28,-1.58 6.73,-0.91 2.41,0.67 4.44,2.29 5.75,4.36 1.31,2.06 1.89,4.59 1.43,7.07z"/>
   <path class="fil0" d="M12.61 28.43c0.26,-1.39 1.57,-2.21 2.94,-1.84 1.37,0.39 2.27,1.82 2.01,3.22 -0.15,0.84 -0.69,1.47 -1.4,1.77l-0.98 5.27 -2.89 -0.78 0.97 -5.31c-0.54,-0.62 -0.82,-1.48 -0.66,-2.33z"/>
  </g>
  <rect class="fil1" width="40.54" height="40.54"/>
 </g>
</svg>
